#!OML:ASF X:\für Bonn\!DataBase\2005_08_10_Bjorn_Final\c3d\bjorn.ASF
:FULLY-SPECIFIED
:DEGREES
181
root -0.993214 16.9691 7.54719 -185.671 5.74811 173.367
lowerback 6.25795 -3.21481 -2.92516
upperback 16.9558 -0.491728 -3.32855
thorax 15.3472 1.07051 -1.77156
lowerneck -6.23486 5.3741 -3.96569
upperneck 0.768074 7.95397 -7.7598
head 1.47337 3.91274 -1.51438
rclavicle 7.95139e-016 1.25234e-014
rhumerus -26.9969 -18.5988 -90.9384
rradius 39.2351
rwrist -3.80668
rhand -15.8915 23.5983
rfingers 7.12502
rthumb 10.3048 -6.12921
lclavicle 7.95139e-016 1.25234e-014
lhumerus -385.697 -12.9083 -279.026
lradius 49.5692
lwrist -9.93916
lhand -46.3914 -21.0787
lfingers 7.12502
lthumb -19.1221 8.00128
rfemur -45.8718 0.257202 9.43666
rtibia 58.3401
rfoot -12.8004 7.94889
rtoes -21.0303
lfemur 3.22325 10.9115 -24.0376
ltibia 49.3396
lfoot -35.9133 -0.764157
ltoes -23.5559
182
root -1.01857 16.9605 7.60143 -185.68 5.77672 173.383
lowerback 6.13274 -3.25535 -2.83172
upperback 17.0143 -0.551202 -3.21927
thorax 15.4969 1.04475 -1.70682
lowerneck -6.42124 5.17692 -3.80865
upperneck 0.774741 7.70281 -7.85299
head 1.51477 3.78517 -1.57325
rclavicle -2.7482e-014 -2.08227e-014
rhumerus -26.3835 -18.5769 -91.1817
rradius 37.6754
rwrist -3.82096
rhand -15.5222 23.6044
rfingers 7.12502
rthumb 10.6611 -6.1051
lclavicle -2.7482e-014 -2.08227e-014
lhumerus -385.375 -12.6941 -278.388
lradius 48.0183
lwrist -10.5203
lhand -46.75 -21.3681
lfingers 7.12502
lthumb -19.467 7.67742
rfemur -46.03 0.341511 9.31797
rtibia 58.2451
rfoot -12.6831 7.8753
rtoes -21.0159
lfemur 3.09352 11.1257 -24.0431
ltibia 49.2882
lfoot -36.1053 0.00469384
ltoes -25.3267
183
root -1.04212 16.9591 7.65075 -185.709 5.80411 173.441
lowerback 6.02864 -3.29044 -2.71559
upperback 17.0469 -0.620168 -3.08681
thorax 15.5977 1.01098 -1.62951
lowerneck -6.6823 5.03663 -3.83056
upperneck 0.959614 7.53704 -7.67293
head 1.60705 3.69008 -1.50905
rclavicle 1.61264e-014 1.43373e-014
rhumerus -25.8737 -18.4326 -91.3426
rradius 36.1921
rwrist -3.37518
rhand -15.3127 23.5698
rfingers 7.12502
rthumb 10.8631 -6.12921
lclavicle 1.61264e-014 1.43373e-014
lhumerus -385.203 -12.6594 -277.733
lradius 46.643
lwrist -10.8691
lhand -47.1088 -21.8178
lfingers 7.12502
lthumb -19.8119 7.19243
rfemur -46.0972 0.444574 9.24142
rtibia 58.0733
rfoot -12.5219 7.9278
rtoes -20.7927
lfemur 3.05568 11.1837 -24.0856
ltibia 49.1046
lfoot -36.3439 1.03919
ltoes -27.1001
184
root -1.06325 16.9638 7.6951 -185.771 5.82521 173.474
lowerback 5.93681 -3.31642 -2.62958
upperback 17.0644 -0.678243 -2.97005
thorax 15.6731 0.978973 -1.55232
lowerneck -6.93309 4.91392 -3.90271
upperneck 1.2115 7.39091 -7.36745
head 1.71223 3.60214 -1.39596
rclavicle 4.27465e-014 -1.44033e-014
rhumerus -25.4295 -18.2444 -91.4467
rradius 34.7074
rwrist -2.62387
rhand -15.2017 23.6547
rfingers 7.12502
rthumb 10.9703 -6.03869
lclavicle 4.27465e-014 -1.44033e-014
lhumerus -385.148 -12.8491 -277.107
lradius 45.4949
lwrist -10.8948
lhand -47.2517 -22.1949
lfingers 7.12502
lthumb -19.9493 6.80114
rfemur -46.0743 0.595107 9.11496
rtibia 57.8426
rfoot -12.2959 8.05066
rtoes -20.2288
lfemur 3.11921 11.0241 -24.2619
ltibia 48.7861
lfoot -36.5725 2.07551
ltoes -28.197
185
root -1.08318 16.9768 7.72996 -185.866 5.78493 173.48
lowerback 5.83554 -3.34209 -2.56674
upperback 17.0435 -0.750471 -2.85285
thorax 15.7047 0.931715 -1.46385
lowerneck -7.06724 4.78839 -4.00599
upperneck 1.49092 7.23562 -7.0456
head 1.80474 3.5114 -1.27604
rclavicle 2.12948e-014 1.79155e-014
rhumerus -25.1096 -18.0429 -91.4905
rradius 33.2982
rwrist -1.69266
rhand -15.2046 23.5426
rfingers 7.12502
rthumb 10.9674 -6.15094
lclavicle 2.12948e-014 1.79155e-014
lhumerus -385.246 -13.2686 -276.452
lradius 44.5655
lwrist -10.6829
lhand -47.0797 -22.2944
lfingers 7.12502
lthumb -19.7839 6.7187
rfemur -45.9246 0.70125 8.94138
rtibia 57.5576
rfoot -12.0553 8.27487
rtoes -19.5792
lfemur 3.29697 10.6135 -24.5737
ltibia 48.3466
lfoot -36.7987 3.05059
ltoes -28.6084
186
root -1.10088 16.9996 7.75603 -185.982 5.6712 173.518
lowerback 5.73728 -3.3802 -2.45884
upperback 17.0045 -0.846202 -2.74554
thorax 15.7076 0.878714 -1.4134
lowerneck -7.20959 4.64483 -4.01551
upperneck 1.85075 7.06008 -6.81431
head 1.93433 3.4069 -1.20051
rclavicle -1.88348e-014 2.6339e-015
rhumerus -24.8531 -17.8754 -91.5385
rradius 32.0173
rwrist -0.657579
rhand -15.3672 23.1464
rfingers 7.12502
rthumb 10.8106 -6.55542
lclavicle -1.88348e-014 2.6339e-015
lhumerus -385.432 -13.8684 -275.85
lradius 43.9058
lwrist -10.202
lhand -46.5897 -22.3194
lfingers 7.12502
lthumb -19.3128 6.74161
rfemur -45.6438 0.782662 8.78867
rtibia 57.217
rfoot -11.8315 8.51903
rtoes -18.9227
lfemur 3.58347 9.99665 -24.9056
ltibia 47.8202
lfoot -37.0421 3.51251
ltoes -27.6521
187
root -1.11667 17.0278 7.77773 -186.045 5.56134 173.609
lowerback 5.62922 -3.40402 -2.31367
upperback 16.9419 -0.938234 -2.61064
thorax 15.6839 0.825368 -1.3533
lowerneck -7.50381 4.48175 -4.00729
upperneck 2.36201 6.88415 -6.64903
head 2.14678 3.29355 -1.14418
rclavicle 3.56322e-014 -5.06901e-015
rhumerus -24.6024 -17.6425 -91.5503
rradius 30.8637
rwrist 0.308422
rhand -15.6156 22.58
rfingers 7.12502
rthumb 10.571 -7.13417
lclavicle 3.56322e-014 -5.06901e-015
lhumerus -385.649 -14.5686 -275.25
lradius 43.507
lwrist -9.43429
lhand -45.7154 -22.179
lfingers 7.12502
lthumb -18.4719 6.96399
rfemur -45.3661 0.895773 8.68699
rtibia 56.8321
rfoot -11.5637 8.77386
rtoes -18.3957
lfemur 3.85207 9.22437 -25.2461
ltibia 47.2333
lfoot -37.2836 3.54409
ltoes -25.4946
188
root -1.13037 17.0612 7.79759 -186.057 5.48502 173.768
lowerback 5.51317 -3.40722 -2.09377
upperback 16.869 -1.0098 -2.47011
thorax 15.6482 0.789698 -1.32716
lowerneck -7.89966 4.3158 -3.9465
upperneck 2.8963 6.70761 -6.50197
head 2.39088 3.17802 -1.10084
rclavicle -3.97569e-015 1.60022e-014
rhumerus -24.3241 -17.6711 -91.5153
rradius 29.697
rwrist 1.43389
rhand -15.8845 22.0827
rfingers 7.12502
rthumb 10.3116 -7.64447
lclavicle -3.97569e-015 1.60022e-014
lhumerus -385.836 -15.4002 -274.699
lradius 43.2361
lwrist -8.80182
lhand -45.235 -22.1655
lfingers 7.12502
lthumb -18.0097 7.02063
rfemur -45.1122 1.04807 8.6651
rtibia 56.4072
rfoot -11.2814 9.0601
rtoes -18.2399
lfemur 4.10002 8.37139 -25.5535
ltibia 46.612
lfoot -37.477 3.64491
ltoes -23.3365
189
root -1.14218 17.0988 7.81538 -185.993 5.41933 173.965
lowerback 5.33035 -3.39028 -1.81465
upperback 16.7696 -1.06754 -2.33214
thorax 15.6175 0.763845 -1.33781
lowerneck -8.25573 4.12534 -3.94326
upperneck 3.42361 6.49166 -6.26912
head 2.62159 3.04613 -1.02416
rclavicle 2.98177e-015 7.15625e-015
rhumerus -24.1045 -17.932 -91.4016
rradius 28.6167
rwrist 2.60952
rhand -16.1673 21.8343
rfingers 7.12502
rthumb 10.0388 -7.90624
lclavicle 2.98177e-015 7.15625e-015
lhumerus -386.066 -16.3014 -274.197
lradius 43.1002
lwrist -8.45217
lhand -44.9039 -22.0338
lfingers 7.12502
lthumb -17.6911 7.18137
rfemur -44.9216 1.22977 8.67783
rtibia 55.9653
rfoot -10.9804 9.33619
rtoes -18.2044
lfemur 4.29035 7.47195 -25.838
ltibia 45.9574
lfoot -37.5264 4.00729
ltoes -21.7575
190
root -1.15147 17.1394 7.83072 -185.899 5.3793 174.129
lowerback 5.12818 -3.35234 -1.59502
upperback 16.6408 -1.10718 -2.1877
thorax 15.5649 0.733153 -1.30849
lowerneck -8.56256 3.93141 -4.00061
upperneck 3.92033 6.26543 -5.97765
head 2.83081 2.91337 -0.920883
rclavicle 4.47266e-015 -2.98177e-015
rhumerus -23.9744 -18.2369 -91.2101
rradius 27.6799
rwrist 3.57172
rhand -16.3286 21.5993
rfingers 7.12502
rthumb 9.88317 -8.14872
lclavicle 4.47266e-015 -2.98177e-015
lhumerus -386.245 -17.3603 -273.686
lradius 42.8421
lwrist -8.28182
lhand -44.898 -21.9716
lfingers 7.12502
lthumb -17.6855 7.24408
rfemur -44.7679 1.40002 8.6645
rtibia 55.5215
rfoot -10.6218 9.68428
rtoes -18.2648
lfemur 4.46633 6.60362 -26.1417
ltibia 45.2795
lfoot -37.466 4.63156
ltoes -21.0135
191
root -1.15814 17.1813 7.84344 -185.799 5.33278 174.28
lowerback 4.93712 -3.29978 -1.38356
upperback 16.4827 -1.13428 -2.05605
thorax 15.4683 0.705291 -1.28865
lowerneck -8.79426 3.73819 -4.04309
upperneck 4.37673 6.03059 -5.70094
head 3.01596 2.78051 -0.827774
rclavicle -1.08338e-014 2.5842e-015
rhumerus -23.9371 -18.519 -90.9807
rradius 26.885
rwrist 4.19164
rhand -16.3005 21.4806
rfingers 7.12502
rthumb 9.91021 -8.26615
lclavicle -1.08338e-014 2.5842e-015
lhumerus -386.376 -18.6439 -273.185
lradius 42.4709
lwrist -8.18483
lhand -45.3685 -22.1017
lfingers 7.12502
lthumb -18.1382 7.0726
rfemur -44.6245 1.45838 8.67199
rtibia 55.0898
rfoot -10.2457 10.1605
rtoes -18.5818
lfemur 4.66817 5.80536 -26.3998
ltibia 44.5682
lfoot -37.3575 5.21705
ltoes -20.4297
192
root -1.16256 17.2236 7.85296 -185.681 5.28862 174.453
lowerback 4.75466 -3.23016 -1.15443
upperback 16.285 -1.15362 -1.9176
thorax 15.3153 0.677306 -1.2715
lowerneck -8.93549 3.54754 -4.01925
upperneck 4.81376 5.79426 -5.52931
head 3.18596 2.64899 -0.78277
rclavicle 7.15625e-015 -3.18055e-015
rhumerus -24.0288 -18.7847 -90.6986
rradius 26.2337
rwrist 4.51581
rhand -16.0967 21.3701
rfingers 7.12502
rthumb 10.1068 -8.36721
lclavicle 7.15625e-015 -3.18055e-015
lhumerus -386.585 -19.9671 -272.666
lradius 42.16
lwrist -8.25597
lhand -46.0114 -22.2458
lfingers 7.12502
lthumb -18.7567 6.86986
rfemur -44.491 1.5174 8.70781
rtibia 54.6695
rfoot -9.89393 10.6338
rtoes -19.1736
lfemur 4.88474 5.13162 -26.5517
ltibia 43.8206
lfoot -37.1756 5.63375
ltoes -19.8256
